<?xml version="1.0" encoding="UTF-8"?><svg id="PP007A" xmlns="http://www.w3.org/2000/svg" width="96" height="96" viewBox="0 0 96 96"><path id="symbol" d="M87.23,7.5H44.48C24.79,7.5,8.77,23.52,8.77,43.21c0,10.04,4.25,19.64,11.68,26.41l-12.1,18.88H80.6l-12.1-18.88c7.43-6.77,11.68-16.36,11.68-26.41,0-5.98-1.51-11.87-4.37-17.1h11.41V7.5Zm-1,17.6h-12.13l.43,.75c3.05,5.26,4.66,11.26,4.66,17.35,0,9.9-4.25,19.36-11.67,25.95l-.32,.28,11.57,18.06H10.19l11.57-18.06-.32-.28c-7.41-6.59-11.67-16.05-11.67-25.95,0-19.14,15.57-34.71,34.71-34.71h41.75V25.1Zm-46.94,18.1c0,2.86,2.33,5.19,5.19,5.19s5.19-2.33,5.19-5.19-2.33-5.19-5.19-5.19-5.19,2.33-5.19,5.19Zm9.39,0c0,2.31-1.88,4.19-4.19,4.19s-4.19-1.88-4.19-4.19,1.88-4.19,4.19-4.19,4.19,1.88,4.19,4.19Z" fill="#231f20"/><g id="annotations"><circle id="annotation-connector-1-270" cx="44.48" cy="43" r=".5" fill="#ed1c24"/><circle id="annotation-connector-2-0" cx="44.48" cy="8" r=".5" fill="#ed1c24"/></g></svg>