<?xml version="1.0" encoding="UTF-8"?><svg id="PP007A" xmlns="http://www.w3.org/2000/svg" width="96" height="192" viewBox="0 0 96 192"><path id="symbol" d="M87.5,165.3h1c0,11.3-18.17,20.5-40.5,20.5s-40.5-9.2-40.5-20.5h1c0,10.75,17.72,19.5,39.5,19.5s39.5-8.75,39.5-19.5Zm1-139.55V165.29H7.5V25.75h.05C8.5,14.87,26.27,6.17,48,6.17s39.5,8.7,40.45,19.58h.05Zm-79.95,0H87.45c-.97-10.33-18.29-18.58-39.45-18.58S9.52,15.42,8.55,25.75ZM87.5,164.29v-29h-1.5v-1h1.5V56.75h-1.5v-1h1.5V26.75H8.5v29h1.5v1h-1.5v77.53h1.5v1h-1.5v29H87.5ZM14,56.75h4v-1h-4v1Zm24,0h4v-1h-4v1Zm-8,0h4v-1h-4v1Zm16,0h4v-1h-4v1Zm16,0h4v-1h-4v1Zm16,0h4v-1h-4v1Zm-56,0h4v-1h-4v1Zm48,0h4v-1h-4v1Zm-16,0h4v-1h-4v1ZM22,135.29h4v-1h-4v1Zm56,0h4v-1h-4v1Zm-64,0h4v-1h-4v1Zm48,0h4v-1h-4v1Zm8,0h4v-1h-4v1Zm-40,0h4v-1h-4v1Zm24,0h4v-1h-4v1Zm-8,0h4v-1h-4v1Zm-8,0h4v-1h-4v1Z" fill="#231f20"/><g id="annotations"><circle id="annotation-connector-1-90" cx="88" cy="96" r=".5" fill="#ed1c24"/><circle id="annotation-connector-2-180" cx="48" cy="185.3" r=".5" fill="#ed1c24"/><circle id="annotation-connector-3-270" cx="8" cy="96" r=".5" fill="#ed1c24"/><circle id="annotation-connector-4-0" cx="48" cy="6.67" r=".5" fill="#ed1c24"/></g></svg>