<svg width="48" height="140" viewBox="0 0 48 140" fill="none" xmlns="http://www.w3.org/2000/svg">
<g clip-path="url(#clip0_155_51397)">
<rect width="48" height="140" fill="white"/>
<g clip-path="url(#clip1_155_51397)">
<path d="M42.6311 24.0867V116.87" stroke="black" stroke-miterlimit="3" stroke-linecap="round" stroke-linejoin="round"/>
<path d="M42.6313 116.848H5.35792" stroke="black" stroke-miterlimit="3" stroke-linecap="round" stroke-linejoin="round"/>
<path d="M42.6475 24.0654H5.37403" stroke="black" stroke-miterlimit="3" stroke-linecap="round" stroke-linejoin="round"/>
<path d="M5.39038 24.0646L5.39038 116.848" stroke="black" stroke-miterlimit="3" stroke-linecap="round" stroke-linejoin="round"/>
<path d="M5.36579 23.8603C5.769 22.6021 6.54636 21.3642 7.65347 20.2172C8.76058 19.0702 10.1758 18.0365 11.8182 17.1753C13.4607 16.314 15.2982 15.642 17.226 15.1976C19.1537 14.7532 21.1338 14.5451 23.0534 14.5853" stroke="black" stroke-miterlimit="3" stroke-linecap="round" stroke-linejoin="round"/>
<path d="M42.635 23.86C41.5073 21.419 38.8108 19.0706 35.1387 17.3314C31.4666 15.5922 27.1197 14.6046 23.054 14.5859" stroke="black" stroke-miterlimit="3" stroke-linecap="round" stroke-linejoin="round"/>
<path d="M42.6342 117.14C42.231 118.398 41.4536 119.636 40.3465 120.783C39.2394 121.93 37.8242 122.963 36.1818 123.825C34.5393 124.686 32.7018 125.358 30.774 125.802C28.8463 126.247 26.8661 126.455 24.9466 126.415" stroke="black" stroke-miterlimit="3" stroke-linecap="round" stroke-linejoin="round"/>
<path d="M5.36548 117.14C6.49324 119.581 9.18972 121.93 12.8618 123.669C16.5339 125.408 20.8809 126.396 24.9466 126.414" stroke="black" stroke-miterlimit="3" stroke-linecap="round" stroke-linejoin="round"/>
<path d="M5.36963 46.0665L42.5692 46.053" stroke="black" stroke-miterlimit="3" stroke-linecap="square" stroke-dasharray="0.22 0.22"/>
<path d="M5.34961 92.2789L42.5491 92.2654" stroke="black" stroke-miterlimit="3" stroke-linecap="square" stroke-dasharray="0.22 0.22"/>
</g>
<line x1="23.5" y1="15" x2="23.5" y2="-3.0036e-08" stroke="black"/>
<line x1="24.5" y1="142" x2="24.5" y2="127" stroke="black"/>
<line x1="4.5" y1="36.5" x2="0.5" y2="36.5" stroke="black" stroke-linecap="square"/>
</g>
<defs>
<clipPath id="clip0_155_51397">
<rect width="48" height="140" fill="white"/>
</clipPath>
<clipPath id="clip1_155_51397">
<rect width="40" height="117" fill="white" transform="translate(4 12)"/>
</clipPath>
</defs>
</svg>
